<svg width="28" height="16" viewBox="0 0 28 16" fill="none" xmlns="http://www.w3.org/2000/svg">
<path d="M1.16602 7C0.613731 7 0.166016 7.44772 0.166016 8C0.166016 8.55228 0.613731 9 1.16602 9V7ZM27.1358 8.70711C27.5264 8.31658 27.5264 7.68342 27.1358 7.29289L20.7719 0.928932C20.3813 0.538408 19.7482 0.538408 19.3577 0.928932C18.9671 1.31946 18.9671 1.95262 19.3577 2.34315L25.0145 8L19.3577 13.6569C18.9671 14.0474 18.9671 14.6805 19.3577 15.0711C19.7482 15.4616 20.3813 15.4616 20.7719 15.0711L27.1358 8.70711ZM1.16602 9H26.4287V7H1.16602V9Z" fill="white"/>
</svg>
