<svg width="43" height="43" viewBox="0 0 43 43" fill="none" xmlns="http://www.w3.org/2000/svg">
<path d="M9.39115 9.02655C9.45994 7.8592 9.49434 7.27553 9.76405 6.84321C9.94646 6.55084 10.2013 6.31057 10.5039 6.14567C10.9513 5.90186 11.536 5.90186 12.7054 5.90186H30.2939C31.4633 5.90186 32.048 5.90186 32.4954 6.14567C32.798 6.31057 33.0529 6.55084 33.2353 6.84321C33.505 7.27553 33.5394 7.8592 33.6082 9.02655L35.0402 33.3276C35.168 35.4962 35.2319 36.5805 34.7734 37.1734C34.4686 37.5675 34.0277 37.8337 33.537 37.9199C32.7988 38.0494 31.8691 37.4879 30.0095 36.3648L23.2161 32.2618C22.5542 31.8621 22.2233 31.6622 21.867 31.5956C21.6242 31.5503 21.3751 31.5503 21.1323 31.5956C20.776 31.6622 20.4451 31.8621 19.7833 32.2618L12.9898 36.3648C11.1303 37.4879 10.2005 38.0494 9.4623 37.9199C8.97158 37.8337 8.53067 37.5675 8.2259 37.1734C7.76744 36.5805 7.83133 35.4962 7.95913 33.3276L9.39115 9.02655Z" fill="url(#paint0_linear_229_235)"/>
<path d="M8.95801 13.975C8.95801 10.9647 8.95801 9.45958 9.54385 8.3098C10.0592 7.29843 10.8814 6.47616 11.8928 5.96084C13.0426 5.375 14.5477 5.375 17.558 5.375H25.4413C28.4516 5.375 29.9568 5.375 31.1065 5.96084C32.1179 6.47616 32.9402 7.29843 33.4555 8.3098C34.0413 9.45958 34.0413 10.9647 34.0413 13.975V37.625L21.4997 30.4583L8.95801 37.625V13.975Z" stroke="url(#paint1_linear_229_235)" stroke-width="2" stroke-linecap="round" stroke-linejoin="round"/>
<path d="M30 16L19 27L14 22" stroke="white" stroke-width="2" stroke-linecap="round" stroke-linejoin="round"/>
<defs>
<linearGradient id="paint0_linear_229_235" x1="23.548" y1="25.023" x2="-2.49032" y2="35.4678" gradientUnits="userSpaceOnUse">
<stop stop-color="#FD7461"/>
<stop offset="1" stop-color="#BA4274"/>
</linearGradient>
<linearGradient id="paint1_linear_229_235" x1="23.3463" y1="23.6596" x2="-0.495124" y2="32.6758" gradientUnits="userSpaceOnUse">
<stop stop-color="#FD7461"/>
<stop offset="1" stop-color="#BA4274"/>
</linearGradient>
</defs>
</svg>
