<svg width="29" height="30" viewBox="0 0 29 30" fill="none" xmlns="http://www.w3.org/2000/svg">
<g clip-path="url(#clip0_229_282)">
<path d="M23.6867 22.7051L20.1942 19.0769C21.321 17.5812 21.9325 15.7341 21.9302 13.8326C21.9302 12.1392 21.4482 10.4838 20.5453 9.07576C19.6423 7.66773 18.3589 6.57031 16.8574 5.92226C15.3558 5.27422 13.7035 5.10466 12.1095 5.43503C10.5154 5.7654 9.05122 6.58086 7.90198 7.77829C6.75274 8.97572 5.97009 10.5013 5.65302 12.1622C5.33594 13.8231 5.49868 15.5447 6.12064 17.1092C6.74261 18.6737 7.79587 20.0109 9.14724 20.9517C10.4986 21.8926 12.0874 22.3947 13.7127 22.3947C15.5376 22.3971 17.3103 21.76 18.7459 20.586L22.2281 24.2249C22.3236 24.3252 22.4372 24.4048 22.5623 24.4591C22.6875 24.5135 22.8218 24.5414 22.9574 24.5414C23.093 24.5414 23.2272 24.5135 23.3524 24.4591C23.4776 24.4048 23.5912 24.3252 23.6867 24.2249C23.783 24.1254 23.8594 24.007 23.9115 23.8766C23.9637 23.7462 23.9905 23.6063 23.9905 23.465C23.9905 23.3237 23.9637 23.1838 23.9115 23.0534C23.8594 22.923 23.783 22.8046 23.6867 22.7051ZM7.5495 13.8326C7.5495 12.5625 7.91097 11.321 8.58818 10.265C9.2654 9.20895 10.228 8.38588 11.3541 7.89985C12.4803 7.41382 13.7195 7.28665 14.915 7.53443C16.1106 7.7822 17.2087 8.3938 18.0707 9.29187C18.9326 10.1899 19.5196 11.3342 19.7574 12.5798C19.9952 13.8255 19.8731 15.1167 19.4067 16.29C18.9402 17.4634 18.1502 18.4663 17.1367 19.172C16.1232 19.8776 14.9316 20.2542 13.7127 20.2542C12.0781 20.2542 10.5105 19.5776 9.35465 18.3734C8.19883 17.1691 7.5495 15.5357 7.5495 13.8326Z" fill="black"/>
</g>
<defs>
<clipPath id="clip0_229_282">
<rect width="27.7431" height="28.9064" fill="white" transform="translate(0.871094 0.453125)"/>
</clipPath>
</defs>
</svg>
